<?xml version="1.0" encoding="utf-8" standalone="no"?>
<!DOCTYPE svg PUBLIC "-//W3C//DTD SVG 1.1//EN"
  "http://www.w3.org/Graphics/SVG/1.1/DTD/svg11.dtd">
<svg xmlns:xlink="http://www.w3.org/1999/xlink" width="612pt" height="338.4pt" viewBox="0 0 612 338.4" xmlns="http://www.w3.org/2000/svg" version="1.1">
 <metadata>
  <rdf:RDF xmlns:dc="http://purl.org/dc/elements/1.1/" xmlns:cc="http://creativecommons.org/ns#" xmlns:rdf="http://www.w3.org/1999/02/22-rdf-syntax-ns#">
   <cc:Work>
    <dc:type rdf:resource="http://purl.org/dc/dcmitype/StillImage"/>
    <dc:date>2026-06-18T13:17:41.986939</dc:date>
    <dc:format>image/svg+xml</dc:format>
    <dc:creator>
     <cc:Agent>
      <dc:title>Matplotlib v3.10.8, https://matplotlib.org/</dc:title>
     </cc:Agent>
    </dc:creator>
   </cc:Work>
  </rdf:RDF>
 </metadata>
 <defs>
  <style type="text/css">*{stroke-linejoin: round; stroke-linecap: butt}</style>
 </defs>
 <g id="figure_1">
  <g id="patch_1">
   <path d="M 0 338.4 
L 612 338.4 
L 612 0 
L 0 0 
z
" style="fill: #ffffff"/>
  </g>
  <g id="axes_1">
   <g id="patch_2">
    <path d="M 53.192 296.44 
L 601.2 296.44 
L 601.2 26.88 
L 53.192 26.88 
z
" style="fill: #ffffff"/>
   </g>
   <g id="matplotlib.axis_1">
    <g id="xtick_1">
     <g id="line2d_1">
      <defs>
       <path id="m6323c6e501" d="M 0 0 
L 0 3.5 
" style="stroke: #000000; stroke-width: 0.8"/>
      </defs>
      <g>
       <use xlink:href="#m6323c6e501" x="60.03242" y="296.44" style="stroke: #000000; stroke-width: 0.8"/>
      </g>
     </g>
     <g id="text_1">
      <!-- 0.0 -->
      <g transform="translate(52.080858 311.038438) scale(0.1 -0.1)">
       <defs>
        <path id="DejaVuSans-30" d="M 2034 4250 
Q 1547 4250 1301 3770 
Q 1056 3291 1056 2328 
Q 1056 1369 1301 889 
Q 1547 409 2034 409 
Q 2525 409 2770 889 
Q 3016 1369 3016 2328 
Q 3016 3291 2770 3770 
Q 2525 4250 2034 4250 
z
M 2034 4750 
Q 2819 4750 3233 4129 
Q 3647 3509 3647 2328 
Q 3647 1150 3233 529 
Q 2819 -91 2034 -91 
Q 1250 -91 836 529 
Q 422 1150 422 2328 
Q 422 3509 836 4129 
Q 1250 4750 2034 4750 
z
" transform="scale(0.015625)"/>
        <path id="DejaVuSans-2e" d="M 684 794 
L 1344 794 
L 1344 0 
L 684 0 
L 684 794 
z
" transform="scale(0.015625)"/>
       </defs>
       <use xlink:href="#DejaVuSans-30"/>
       <use xlink:href="#DejaVuSans-2e" transform="translate(63.623047 0)"/>
       <use xlink:href="#DejaVuSans-30" transform="translate(95.410156 0)"/>
      </g>
     </g>
    </g>
    <g id="xtick_2">
     <g id="line2d_2">
      <g>
       <use xlink:href="#m6323c6e501" x="163.284045" y="296.44" style="stroke: #000000; stroke-width: 0.8"/>
      </g>
     </g>
     <g id="text_2">
      <!-- 0.2 -->
      <g transform="translate(155.332483 311.038438) scale(0.1 -0.1)">
       <defs>
        <path id="DejaVuSans-32" d="M 1228 531 
L 3431 531 
L 3431 0 
L 469 0 
L 469 531 
Q 828 903 1448 1529 
Q 2069 2156 2228 2338 
Q 2531 2678 2651 2914 
Q 2772 3150 2772 3378 
Q 2772 3750 2511 3984 
Q 2250 4219 1831 4219 
Q 1534 4219 1204 4116 
Q 875 4013 500 3803 
L 500 4441 
Q 881 4594 1212 4672 
Q 1544 4750 1819 4750 
Q 2544 4750 2975 4387 
Q 3406 4025 3406 3419 
Q 3406 3131 3298 2873 
Q 3191 2616 2906 2266 
Q 2828 2175 2409 1742 
Q 1991 1309 1228 531 
z
" transform="scale(0.015625)"/>
       </defs>
       <use xlink:href="#DejaVuSans-30"/>
       <use xlink:href="#DejaVuSans-2e" transform="translate(63.623047 0)"/>
       <use xlink:href="#DejaVuSans-32" transform="translate(95.410156 0)"/>
      </g>
     </g>
    </g>
    <g id="xtick_3">
     <g id="line2d_3">
      <g>
       <use xlink:href="#m6323c6e501" x="266.53567" y="296.44" style="stroke: #000000; stroke-width: 0.8"/>
      </g>
     </g>
     <g id="text_3">
      <!-- 0.4 -->
      <g transform="translate(258.584108 311.038438) scale(0.1 -0.1)">
       <defs>
        <path id="DejaVuSans-34" d="M 2419 4116 
L 825 1625 
L 2419 1625 
L 2419 4116 
z
M 2253 4666 
L 3047 4666 
L 3047 1625 
L 3713 1625 
L 3713 1100 
L 3047 1100 
L 3047 0 
L 2419 0 
L 2419 1100 
L 313 1100 
L 313 1709 
L 2253 4666 
z
" transform="scale(0.015625)"/>
       </defs>
       <use xlink:href="#DejaVuSans-30"/>
       <use xlink:href="#DejaVuSans-2e" transform="translate(63.623047 0)"/>
       <use xlink:href="#DejaVuSans-34" transform="translate(95.410156 0)"/>
      </g>
     </g>
    </g>
    <g id="xtick_4">
     <g id="line2d_4">
      <g>
       <use xlink:href="#m6323c6e501" x="369.787295" y="296.44" style="stroke: #000000; stroke-width: 0.8"/>
      </g>
     </g>
     <g id="text_4">
      <!-- 0.6 -->
      <g transform="translate(361.835733 311.038438) scale(0.1 -0.1)">
       <defs>
        <path id="DejaVuSans-36" d="M 2113 2584 
Q 1688 2584 1439 2293 
Q 1191 2003 1191 1497 
Q 1191 994 1439 701 
Q 1688 409 2113 409 
Q 2538 409 2786 701 
Q 3034 994 3034 1497 
Q 3034 2003 2786 2293 
Q 2538 2584 2113 2584 
z
M 3366 4563 
L 3366 3988 
Q 3128 4100 2886 4159 
Q 2644 4219 2406 4219 
Q 1781 4219 1451 3797 
Q 1122 3375 1075 2522 
Q 1259 2794 1537 2939 
Q 1816 3084 2150 3084 
Q 2853 3084 3261 2657 
Q 3669 2231 3669 1497 
Q 3669 778 3244 343 
Q 2819 -91 2113 -91 
Q 1303 -91 875 529 
Q 447 1150 447 2328 
Q 447 3434 972 4092 
Q 1497 4750 2381 4750 
Q 2619 4750 2861 4703 
Q 3103 4656 3366 4563 
z
" transform="scale(0.015625)"/>
       </defs>
       <use xlink:href="#DejaVuSans-30"/>
       <use xlink:href="#DejaVuSans-2e" transform="translate(63.623047 0)"/>
       <use xlink:href="#DejaVuSans-36" transform="translate(95.410156 0)"/>
      </g>
     </g>
    </g>
    <g id="xtick_5">
     <g id="line2d_5">
      <g>
       <use xlink:href="#m6323c6e501" x="473.03892" y="296.44" style="stroke: #000000; stroke-width: 0.8"/>
      </g>
     </g>
     <g id="text_5">
      <!-- 0.8 -->
      <g transform="translate(465.087358 311.038438) scale(0.1 -0.1)">
       <defs>
        <path id="DejaVuSans-38" d="M 2034 2216 
Q 1584 2216 1326 1975 
Q 1069 1734 1069 1313 
Q 1069 891 1326 650 
Q 1584 409 2034 409 
Q 2484 409 2743 651 
Q 3003 894 3003 1313 
Q 3003 1734 2745 1975 
Q 2488 2216 2034 2216 
z
M 1403 2484 
Q 997 2584 770 2862 
Q 544 3141 544 3541 
Q 544 4100 942 4425 
Q 1341 4750 2034 4750 
Q 2731 4750 3128 4425 
Q 3525 4100 3525 3541 
Q 3525 3141 3298 2862 
Q 3072 2584 2669 2484 
Q 3125 2378 3379 2068 
Q 3634 1759 3634 1313 
Q 3634 634 3220 271 
Q 2806 -91 2034 -91 
Q 1263 -91 848 271 
Q 434 634 434 1313 
Q 434 1759 690 2068 
Q 947 2378 1403 2484 
z
M 1172 3481 
Q 1172 3119 1398 2916 
Q 1625 2713 2034 2713 
Q 2441 2713 2670 2916 
Q 2900 3119 2900 3481 
Q 2900 3844 2670 4047 
Q 2441 4250 2034 4250 
Q 1625 4250 1398 4047 
Q 1172 3844 1172 3481 
z
" transform="scale(0.015625)"/>
       </defs>
       <use xlink:href="#DejaVuSans-30"/>
       <use xlink:href="#DejaVuSans-2e" transform="translate(63.623047 0)"/>
       <use xlink:href="#DejaVuSans-38" transform="translate(95.410156 0)"/>
      </g>
     </g>
    </g>
    <g id="xtick_6">
     <g id="line2d_6">
      <g>
       <use xlink:href="#m6323c6e501" x="576.290545" y="296.44" style="stroke: #000000; stroke-width: 0.8"/>
      </g>
     </g>
     <g id="text_6">
      <!-- 1.0 -->
      <g transform="translate(568.338983 311.038438) scale(0.1 -0.1)">
       <defs>
        <path id="DejaVuSans-31" d="M 794 531 
L 1825 531 
L 1825 4091 
L 703 3866 
L 703 4441 
L 1819 4666 
L 2450 4666 
L 2450 531 
L 3481 531 
L 3481 0 
L 794 0 
L 794 531 
z
" transform="scale(0.015625)"/>
       </defs>
       <use xlink:href="#DejaVuSans-31"/>
       <use xlink:href="#DejaVuSans-2e" transform="translate(63.623047 0)"/>
       <use xlink:href="#DejaVuSans-30" transform="translate(95.410156 0)"/>
      </g>
     </g>
    </g>
    <g id="text_7">
     <!-- x in (0,1] -->
     <g transform="translate(304.647562 324.716563) scale(0.1 -0.1)">
      <defs>
       <path id="DejaVuSans-78" d="M 3513 3500 
L 2247 1797 
L 3578 0 
L 2900 0 
L 1881 1375 
L 863 0 
L 184 0 
L 1544 1831 
L 300 3500 
L 978 3500 
L 1906 2253 
L 2834 3500 
L 3513 3500 
z
" transform="scale(0.015625)"/>
       <path id="DejaVuSans-20" transform="scale(0.015625)"/>
       <path id="DejaVuSans-69" d="M 603 3500 
L 1178 3500 
L 1178 0 
L 603 0 
L 603 3500 
z
M 603 4863 
L 1178 4863 
L 1178 4134 
L 603 4134 
L 603 4863 
z
" transform="scale(0.015625)"/>
       <path id="DejaVuSans-6e" d="M 3513 2113 
L 3513 0 
L 2938 0 
L 2938 2094 
Q 2938 2591 2744 2837 
Q 2550 3084 2163 3084 
Q 1697 3084 1428 2787 
Q 1159 2491 1159 1978 
L 1159 0 
L 581 0 
L 581 3500 
L 1159 3500 
L 1159 2956 
Q 1366 3272 1645 3428 
Q 1925 3584 2291 3584 
Q 2894 3584 3203 3211 
Q 3513 2838 3513 2113 
z
" transform="scale(0.015625)"/>
       <path id="DejaVuSans-28" d="M 1984 4856 
Q 1566 4138 1362 3434 
Q 1159 2731 1159 2009 
Q 1159 1288 1364 580 
Q 1569 -128 1984 -844 
L 1484 -844 
Q 1016 -109 783 600 
Q 550 1309 550 2009 
Q 550 2706 781 3412 
Q 1013 4119 1484 4856 
L 1984 4856 
z
" transform="scale(0.015625)"/>
       <path id="DejaVuSans-2c" d="M 750 794 
L 1409 794 
L 1409 256 
L 897 -744 
L 494 -744 
L 750 256 
L 750 794 
z
" transform="scale(0.015625)"/>
       <path id="DejaVuSans-5d" d="M 1947 4863 
L 1947 -844 
L 622 -844 
L 622 -397 
L 1369 -397 
L 1369 4416 
L 622 4416 
L 622 4863 
L 1947 4863 
z
" transform="scale(0.015625)"/>
      </defs>
      <use xlink:href="#DejaVuSans-78"/>
      <use xlink:href="#DejaVuSans-20" transform="translate(59.179688 0)"/>
      <use xlink:href="#DejaVuSans-69" transform="translate(90.966797 0)"/>
      <use xlink:href="#DejaVuSans-6e" transform="translate(118.75 0)"/>
      <use xlink:href="#DejaVuSans-20" transform="translate(182.128906 0)"/>
      <use xlink:href="#DejaVuSans-28" transform="translate(213.916016 0)"/>
      <use xlink:href="#DejaVuSans-30" transform="translate(252.929688 0)"/>
      <use xlink:href="#DejaVuSans-2c" transform="translate(316.552734 0)"/>
      <use xlink:href="#DejaVuSans-31" transform="translate(348.339844 0)"/>
      <use xlink:href="#DejaVuSans-5d" transform="translate(411.962891 0)"/>
     </g>
    </g>
   </g>
   <g id="matplotlib.axis_2">
    <g id="ytick_1">
     <g id="line2d_7">
      <defs>
       <path id="maa3f0925b1" d="M 0 0 
L -3.5 0 
" style="stroke: #000000; stroke-width: 0.8"/>
      </defs>
      <g>
       <use xlink:href="#maa3f0925b1" x="53.192" y="284.187273" style="stroke: #000000; stroke-width: 0.8"/>
      </g>
     </g>
     <g id="text_8">
      <!-- 0.0 -->
      <g transform="translate(30.288875 287.986491) scale(0.1 -0.1)">
       <use xlink:href="#DejaVuSans-30"/>
       <use xlink:href="#DejaVuSans-2e" transform="translate(63.623047 0)"/>
       <use xlink:href="#DejaVuSans-30" transform="translate(95.410156 0)"/>
      </g>
     </g>
    </g>
    <g id="ytick_2">
     <g id="line2d_8">
      <g>
       <use xlink:href="#maa3f0925b1" x="53.192" y="253.555455" style="stroke: #000000; stroke-width: 0.8"/>
      </g>
     </g>
     <g id="text_9">
      <!-- 0.1 -->
      <g transform="translate(30.288875 257.354673) scale(0.1 -0.1)">
       <use xlink:href="#DejaVuSans-30"/>
       <use xlink:href="#DejaVuSans-2e" transform="translate(63.623047 0)"/>
       <use xlink:href="#DejaVuSans-31" transform="translate(95.410156 0)"/>
      </g>
     </g>
    </g>
    <g id="ytick_3">
     <g id="line2d_9">
      <g>
       <use xlink:href="#maa3f0925b1" x="53.192" y="222.923636" style="stroke: #000000; stroke-width: 0.8"/>
      </g>
     </g>
     <g id="text_10">
      <!-- 0.2 -->
      <g transform="translate(30.288875 226.722855) scale(0.1 -0.1)">
       <use xlink:href="#DejaVuSans-30"/>
       <use xlink:href="#DejaVuSans-2e" transform="translate(63.623047 0)"/>
       <use xlink:href="#DejaVuSans-32" transform="translate(95.410156 0)"/>
      </g>
     </g>
    </g>
    <g id="ytick_4">
     <g id="line2d_10">
      <g>
       <use xlink:href="#maa3f0925b1" x="53.192" y="192.291818" style="stroke: #000000; stroke-width: 0.8"/>
      </g>
     </g>
     <g id="text_11">
      <!-- 0.3 -->
      <g transform="translate(30.288875 196.091037) scale(0.1 -0.1)">
       <defs>
        <path id="DejaVuSans-33" d="M 2597 2516 
Q 3050 2419 3304 2112 
Q 3559 1806 3559 1356 
Q 3559 666 3084 287 
Q 2609 -91 1734 -91 
Q 1441 -91 1130 -33 
Q 819 25 488 141 
L 488 750 
Q 750 597 1062 519 
Q 1375 441 1716 441 
Q 2309 441 2620 675 
Q 2931 909 2931 1356 
Q 2931 1769 2642 2001 
Q 2353 2234 1838 2234 
L 1294 2234 
L 1294 2753 
L 1863 2753 
Q 2328 2753 2575 2939 
Q 2822 3125 2822 3475 
Q 2822 3834 2567 4026 
Q 2313 4219 1838 4219 
Q 1578 4219 1281 4162 
Q 984 4106 628 3988 
L 628 4550 
Q 988 4650 1302 4700 
Q 1616 4750 1894 4750 
Q 2613 4750 3031 4423 
Q 3450 4097 3450 3541 
Q 3450 3153 3228 2886 
Q 3006 2619 2597 2516 
z
" transform="scale(0.015625)"/>
       </defs>
       <use xlink:href="#DejaVuSans-30"/>
       <use xlink:href="#DejaVuSans-2e" transform="translate(63.623047 0)"/>
       <use xlink:href="#DejaVuSans-33" transform="translate(95.410156 0)"/>
      </g>
     </g>
    </g>
    <g id="ytick_5">
     <g id="line2d_11">
      <g>
       <use xlink:href="#maa3f0925b1" x="53.192" y="161.66" style="stroke: #000000; stroke-width: 0.8"/>
      </g>
     </g>
     <g id="text_12">
      <!-- 0.4 -->
      <g transform="translate(30.288875 165.459219) scale(0.1 -0.1)">
       <use xlink:href="#DejaVuSans-30"/>
       <use xlink:href="#DejaVuSans-2e" transform="translate(63.623047 0)"/>
       <use xlink:href="#DejaVuSans-34" transform="translate(95.410156 0)"/>
      </g>
     </g>
    </g>
    <g id="ytick_6">
     <g id="line2d_12">
      <g>
       <use xlink:href="#maa3f0925b1" x="53.192" y="131.028182" style="stroke: #000000; stroke-width: 0.8"/>
      </g>
     </g>
     <g id="text_13">
      <!-- 0.5 -->
      <g transform="translate(30.288875 134.827401) scale(0.1 -0.1)">
       <defs>
        <path id="DejaVuSans-35" d="M 691 4666 
L 3169 4666 
L 3169 4134 
L 1269 4134 
L 1269 2991 
Q 1406 3038 1543 3061 
Q 1681 3084 1819 3084 
Q 2600 3084 3056 2656 
Q 3513 2228 3513 1497 
Q 3513 744 3044 326 
Q 2575 -91 1722 -91 
Q 1428 -91 1123 -41 
Q 819 9 494 109 
L 494 744 
Q 775 591 1075 516 
Q 1375 441 1709 441 
Q 2250 441 2565 725 
Q 2881 1009 2881 1497 
Q 2881 1984 2565 2268 
Q 2250 2553 1709 2553 
Q 1456 2553 1204 2497 
Q 953 2441 691 2322 
L 691 4666 
z
" transform="scale(0.015625)"/>
       </defs>
       <use xlink:href="#DejaVuSans-30"/>
       <use xlink:href="#DejaVuSans-2e" transform="translate(63.623047 0)"/>
       <use xlink:href="#DejaVuSans-35" transform="translate(95.410156 0)"/>
      </g>
     </g>
    </g>
    <g id="ytick_7">
     <g id="line2d_13">
      <g>
       <use xlink:href="#maa3f0925b1" x="53.192" y="100.396364" style="stroke: #000000; stroke-width: 0.8"/>
      </g>
     </g>
     <g id="text_14">
      <!-- 0.6 -->
      <g transform="translate(30.288875 104.195582) scale(0.1 -0.1)">
       <use xlink:href="#DejaVuSans-30"/>
       <use xlink:href="#DejaVuSans-2e" transform="translate(63.623047 0)"/>
       <use xlink:href="#DejaVuSans-36" transform="translate(95.410156 0)"/>
      </g>
     </g>
    </g>
    <g id="ytick_8">
     <g id="line2d_14">
      <g>
       <use xlink:href="#maa3f0925b1" x="53.192" y="69.764545" style="stroke: #000000; stroke-width: 0.8"/>
      </g>
     </g>
     <g id="text_15">
      <!-- 0.7 -->
      <g transform="translate(30.288875 73.563764) scale(0.1 -0.1)">
       <defs>
        <path id="DejaVuSans-37" d="M 525 4666 
L 3525 4666 
L 3525 4397 
L 1831 0 
L 1172 0 
L 2766 4134 
L 525 4134 
L 525 4666 
z
" transform="scale(0.015625)"/>
       </defs>
       <use xlink:href="#DejaVuSans-30"/>
       <use xlink:href="#DejaVuSans-2e" transform="translate(63.623047 0)"/>
       <use xlink:href="#DejaVuSans-37" transform="translate(95.410156 0)"/>
      </g>
     </g>
    </g>
    <g id="ytick_9">
     <g id="line2d_15">
      <g>
       <use xlink:href="#maa3f0925b1" x="53.192" y="39.132727" style="stroke: #000000; stroke-width: 0.8"/>
      </g>
     </g>
     <g id="text_16">
      <!-- 0.8 -->
      <g transform="translate(30.288875 42.931946) scale(0.1 -0.1)">
       <use xlink:href="#DejaVuSans-30"/>
       <use xlink:href="#DejaVuSans-2e" transform="translate(63.623047 0)"/>
       <use xlink:href="#DejaVuSans-38" transform="translate(95.410156 0)"/>
      </g>
     </g>
    </g>
    <g id="text_17">
     <!-- $\rho(1/(nx)) - n^{-1}\rho(1/x)$ -->
     <g transform="translate(24.188875 213.41) rotate(-90) scale(0.1 -0.1)">
      <defs>
       <path id="DejaVuSans-Oblique-3c1" d="M 1203 2875 
Q 1453 3194 1981 3475 
Q 2188 3584 2756 3584 
Q 3394 3584 3694 3078 
Q 3994 2572 3834 1747 
Q 3672 922 3175 415 
Q 2678 -91 2041 -91 
Q 1656 -91 1409 63 
Q 1163 213 1044 525 
L 681 -1331 
L 103 -1331 
L 697 1716 
Q 838 2438 1203 2875 
z
M 3238 1747 
Q 3359 2381 3169 2744 
Q 2978 3103 2522 3103 
Q 2066 3103 1734 2744 
Q 1403 2381 1281 1747 
Q 1156 1113 1347 750 
Q 1538 391 1994 391 
Q 2450 391 2781 750 
Q 3113 1113 3238 1747 
z
" transform="scale(0.015625)"/>
       <path id="DejaVuSans-2f" d="M 1625 4666 
L 2156 4666 
L 531 -594 
L 0 -594 
L 1625 4666 
z
" transform="scale(0.015625)"/>
       <path id="DejaVuSans-Oblique-6e" d="M 3566 2113 
L 3156 0 
L 2578 0 
L 2988 2091 
Q 3016 2238 3031 2350 
Q 3047 2463 3047 2528 
Q 3047 2791 2881 2937 
Q 2716 3084 2419 3084 
Q 1956 3084 1622 2776 
Q 1288 2469 1184 1941 
L 800 0 
L 225 0 
L 903 3500 
L 1478 3500 
L 1363 2950 
Q 1603 3253 1940 3418 
Q 2278 3584 2650 3584 
Q 3113 3584 3367 3334 
Q 3622 3084 3622 2631 
Q 3622 2519 3608 2391 
Q 3594 2263 3566 2113 
z
" transform="scale(0.015625)"/>
       <path id="DejaVuSans-Oblique-78" d="M 3841 3500 
L 2234 1784 
L 3219 0 
L 2559 0 
L 1819 1388 
L 531 0 
L -166 0 
L 1556 1844 
L 641 3500 
L 1300 3500 
L 1972 2234 
L 3144 3500 
L 3841 3500 
z
" transform="scale(0.015625)"/>
       <path id="DejaVuSans-29" d="M 513 4856 
L 1013 4856 
Q 1481 4119 1714 3412 
Q 1947 2706 1947 2009 
Q 1947 1309 1714 600 
Q 1481 -109 1013 -844 
L 513 -844 
Q 928 -128 1133 580 
Q 1338 1288 1338 2009 
Q 1338 2731 1133 3434 
Q 928 4138 513 4856 
z
" transform="scale(0.015625)"/>
       <path id="DejaVuSans-2212" d="M 678 2272 
L 4684 2272 
L 4684 1741 
L 678 1741 
L 678 2272 
z
" transform="scale(0.015625)"/>
      </defs>
      <use xlink:href="#DejaVuSans-Oblique-3c1" transform="translate(0 0.684375)"/>
      <use xlink:href="#DejaVuSans-28" transform="translate(63.476562 0.684375)"/>
      <use xlink:href="#DejaVuSans-31" transform="translate(102.490234 0.684375)"/>
      <use xlink:href="#DejaVuSans-2f" transform="translate(166.113281 0.684375)"/>
      <use xlink:href="#DejaVuSans-28" transform="translate(199.804688 0.684375)"/>
      <use xlink:href="#DejaVuSans-Oblique-6e" transform="translate(238.818359 0.684375)"/>
      <use xlink:href="#DejaVuSans-Oblique-78" transform="translate(302.197266 0.684375)"/>
      <use xlink:href="#DejaVuSans-29" transform="translate(361.376953 0.684375)"/>
      <use xlink:href="#DejaVuSans-29" transform="translate(400.390625 0.684375)"/>
      <use xlink:href="#DejaVuSans-2212" transform="translate(458.886719 0.684375)"/>
      <use xlink:href="#DejaVuSans-Oblique-6e" transform="translate(562.158203 0.684375)"/>
      <use xlink:href="#DejaVuSans-2212" transform="translate(630.187005 38.965625) scale(0.7)"/>
      <use xlink:href="#DejaVuSans-31" transform="translate(688.839349 38.965625) scale(0.7)"/>
      <use xlink:href="#DejaVuSans-Oblique-3c1" transform="translate(736.109857 0.684375)"/>
      <use xlink:href="#DejaVuSans-28" transform="translate(799.586419 0.684375)"/>
      <use xlink:href="#DejaVuSans-31" transform="translate(838.600091 0.684375)"/>
      <use xlink:href="#DejaVuSans-2f" transform="translate(902.223138 0.684375)"/>
      <use xlink:href="#DejaVuSans-Oblique-78" transform="translate(935.914544 0.684375)"/>
      <use xlink:href="#DejaVuSans-29" transform="translate(995.094232 0.684375)"/>
     </g>
    </g>
   </g>
   <g id="line2d_16">
    <path d="M 78.101455 284.187273 
L 78.350611 284.187273 
L 78.47519 131.028182 
L 79.098082 131.028182 
L 79.22266 284.187273 
L 79.845552 284.187273 
L 79.970131 131.028182 
L 80.593023 131.028182 
L 80.717601 284.187273 
L 81.465072 284.187273 
L 81.58965 131.028182 
L 82.461699 131.028182 
L 82.586278 284.187273 
L 83.458326 284.187273 
L 83.582905 131.028182 
L 84.579532 131.028182 
L 84.704111 284.187273 
L 85.825316 284.187273 
L 85.949895 131.028182 
L 87.195679 131.028182 
L 87.320257 284.187273 
L 88.69062 284.187273 
L 88.815198 131.028182 
L 90.310139 131.028182 
L 90.434718 284.187273 
L 92.178816 284.187273 
L 92.303394 131.028182 
L 94.421227 131.028182 
L 94.545806 284.187273 
L 96.788217 284.187273 
L 96.912796 131.028182 
L 99.653521 131.028182 
L 99.778099 284.187273 
L 103.017138 284.187273 
L 103.141716 131.028182 
L 106.879069 131.028182 
L 107.003647 284.187273 
L 111.613049 284.187273 
L 111.737627 131.028182 
L 117.343656 131.028182 
L 117.468234 284.187273 
L 124.444626 284.187273 
L 124.569204 131.028182 
L 133.663429 131.028182 
L 133.788007 284.187273 
L 145.996692 284.187273 
L 146.12127 131.028182 
L 163.188514 131.028182 
L 163.313092 284.187273 
L 188.976246 284.187273 
L 189.100824 131.028182 
L 232.080378 131.028182 
L 232.204957 284.187273 
L 318.039486 284.187273 
L 318.164065 131.028182 
L 576.290545 131.028182 
L 576.290545 131.028182 
" clip-path="url(#p2edf2f33e7)" style="fill: none; stroke: #1f77b4; stroke-linecap: square"/>
   </g>
   <g id="line2d_17">
    <path d="M 78.101455 182.081212 
L 78.350611 182.081212 
L 78.47519 284.187273 
L 79.098082 284.187273 
L 79.22266 79.975152 
L 79.845552 79.975152 
L 79.970131 182.081212 
L 80.593023 182.081212 
L 80.717601 284.187273 
L 81.465072 284.187273 
L 81.58965 79.975152 
L 82.461699 79.975152 
L 82.586278 182.081212 
L 83.458326 182.081212 
L 83.582905 284.187273 
L 84.579532 284.187273 
L 84.704111 79.975152 
L 85.825316 79.975152 
L 85.949895 182.081212 
L 87.195679 182.081212 
L 87.320257 284.187273 
L 88.69062 284.187273 
L 88.815198 79.975152 
L 90.310139 79.975152 
L 90.434718 182.081212 
L 92.178816 182.081212 
L 92.303394 284.187273 
L 94.421227 284.187273 
L 94.545806 79.975152 
L 96.788217 79.975152 
L 96.912796 182.081212 
L 99.653521 182.081212 
L 99.778099 284.187273 
L 103.017138 284.187273 
L 103.141716 79.975152 
L 106.879069 79.975152 
L 107.003647 182.081212 
L 111.613049 182.081212 
L 111.737627 284.187273 
L 117.343656 284.187273 
L 117.468234 79.975152 
L 124.444626 79.975152 
L 124.569204 182.081212 
L 133.663429 182.081212 
L 133.788007 284.187273 
L 145.996692 284.187273 
L 146.12127 79.975152 
L 163.188514 79.975152 
L 163.313092 182.081212 
L 188.976246 182.081212 
L 189.100824 284.187273 
L 232.080378 284.187273 
L 232.204957 79.975152 
L 318.039486 79.975152 
L 318.164065 182.081212 
L 576.290545 182.081212 
L 576.290545 182.081212 
" clip-path="url(#p2edf2f33e7)" style="fill: none; stroke: #ff7f0e; stroke-linecap: square"/>
   </g>
   <g id="line2d_18">
    <path d="M 78.101455 100.396364 
L 78.350611 100.396364 
L 78.47519 161.66 
L 79.098082 161.66 
L 79.22266 222.923636 
L 79.845552 222.923636 
L 79.970131 284.187273 
L 80.593023 284.187273 
L 80.717601 39.132727 
L 81.465072 39.132727 
L 81.58965 100.396364 
L 82.461699 100.396364 
L 82.586278 161.66 
L 83.458326 161.66 
L 83.582905 222.923636 
L 84.579532 222.923636 
L 84.704111 284.187273 
L 85.825316 284.187273 
L 85.949895 39.132727 
L 87.195679 39.132727 
L 87.320257 100.396364 
L 88.69062 100.396364 
L 88.815198 161.66 
L 90.310139 161.66 
L 90.434718 222.923636 
L 92.178816 222.923636 
L 92.303394 284.187273 
L 94.421227 284.187273 
L 94.545806 39.132727 
L 96.788217 39.132727 
L 96.912796 100.396364 
L 99.653521 100.396364 
L 99.778099 161.66 
L 103.017138 161.66 
L 103.141716 222.923636 
L 106.879069 222.923636 
L 107.003647 284.187273 
L 111.613049 284.187273 
L 111.737627 39.132727 
L 117.343656 39.132727 
L 117.468234 100.396364 
L 124.444626 100.396364 
L 124.569204 161.66 
L 133.663429 161.66 
L 133.788007 222.923636 
L 145.996692 222.923636 
L 146.12127 284.187273 
L 163.188514 284.187273 
L 163.313092 39.132727 
L 188.976246 39.132727 
L 189.100824 100.396364 
L 232.080378 100.396364 
L 232.204957 161.66 
L 318.039486 161.66 
L 318.164065 222.923636 
L 576.290545 222.923636 
L 576.290545 222.923636 
" clip-path="url(#p2edf2f33e7)" style="fill: none; stroke: #2ca02c; stroke-linecap: square"/>
   </g>
   <g id="line2d_19">
    <path d="M 53.192 284.187273 
L 601.2 284.187273 
" clip-path="url(#p2edf2f33e7)" style="fill: none; stroke: #1f77b4; stroke-width: 0.8; stroke-linecap: square"/>
   </g>
   <g id="patch_3">
    <path d="M 53.192 296.44 
L 53.192 26.88 
" style="fill: none; stroke: #000000; stroke-width: 0.8; stroke-linejoin: miter; stroke-linecap: square"/>
   </g>
   <g id="patch_4">
    <path d="M 601.2 296.44 
L 601.2 26.88 
" style="fill: none; stroke: #000000; stroke-width: 0.8; stroke-linejoin: miter; stroke-linecap: square"/>
   </g>
   <g id="patch_5">
    <path d="M 53.192 296.44 
L 601.2 296.44 
" style="fill: none; stroke: #000000; stroke-width: 0.8; stroke-linejoin: miter; stroke-linecap: square"/>
   </g>
   <g id="patch_6">
    <path d="M 53.192 26.88 
L 601.2 26.88 
" style="fill: none; stroke: #000000; stroke-width: 0.8; stroke-linejoin: miter; stroke-linecap: square"/>
   </g>
   <g id="text_18">
    <!-- Integer reciprocal Beurling atoms -->
    <g transform="translate(226.754125 20.88) scale(0.12 -0.12)">
     <defs>
      <path id="DejaVuSans-49" d="M 628 4666 
L 1259 4666 
L 1259 0 
L 628 0 
L 628 4666 
z
" transform="scale(0.015625)"/>
      <path id="DejaVuSans-74" d="M 1172 4494 
L 1172 3500 
L 2356 3500 
L 2356 3053 
L 1172 3053 
L 1172 1153 
Q 1172 725 1289 603 
Q 1406 481 1766 481 
L 2356 481 
L 2356 0 
L 1766 0 
Q 1100 0 847 248 
Q 594 497 594 1153 
L 594 3053 
L 172 3053 
L 172 3500 
L 594 3500 
L 594 4494 
L 1172 4494 
z
" transform="scale(0.015625)"/>
      <path id="DejaVuSans-65" d="M 3597 1894 
L 3597 1613 
L 953 1613 
Q 991 1019 1311 708 
Q 1631 397 2203 397 
Q 2534 397 2845 478 
Q 3156 559 3463 722 
L 3463 178 
Q 3153 47 2828 -22 
Q 2503 -91 2169 -91 
Q 1331 -91 842 396 
Q 353 884 353 1716 
Q 353 2575 817 3079 
Q 1281 3584 2069 3584 
Q 2775 3584 3186 3129 
Q 3597 2675 3597 1894 
z
M 3022 2063 
Q 3016 2534 2758 2815 
Q 2500 3097 2075 3097 
Q 1594 3097 1305 2825 
Q 1016 2553 972 2059 
L 3022 2063 
z
" transform="scale(0.015625)"/>
      <path id="DejaVuSans-67" d="M 2906 1791 
Q 2906 2416 2648 2759 
Q 2391 3103 1925 3103 
Q 1463 3103 1205 2759 
Q 947 2416 947 1791 
Q 947 1169 1205 825 
Q 1463 481 1925 481 
Q 2391 481 2648 825 
Q 2906 1169 2906 1791 
z
M 3481 434 
Q 3481 -459 3084 -895 
Q 2688 -1331 1869 -1331 
Q 1566 -1331 1297 -1286 
Q 1028 -1241 775 -1147 
L 775 -588 
Q 1028 -725 1275 -790 
Q 1522 -856 1778 -856 
Q 2344 -856 2625 -561 
Q 2906 -266 2906 331 
L 2906 616 
Q 2728 306 2450 153 
Q 2172 0 1784 0 
Q 1141 0 747 490 
Q 353 981 353 1791 
Q 353 2603 747 3093 
Q 1141 3584 1784 3584 
Q 2172 3584 2450 3431 
Q 2728 3278 2906 2969 
L 2906 3500 
L 3481 3500 
L 3481 434 
z
" transform="scale(0.015625)"/>
      <path id="DejaVuSans-72" d="M 2631 2963 
Q 2534 3019 2420 3045 
Q 2306 3072 2169 3072 
Q 1681 3072 1420 2755 
Q 1159 2438 1159 1844 
L 1159 0 
L 581 0 
L 581 3500 
L 1159 3500 
L 1159 2956 
Q 1341 3275 1631 3429 
Q 1922 3584 2338 3584 
Q 2397 3584 2469 3576 
Q 2541 3569 2628 3553 
L 2631 2963 
z
" transform="scale(0.015625)"/>
      <path id="DejaVuSans-63" d="M 3122 3366 
L 3122 2828 
Q 2878 2963 2633 3030 
Q 2388 3097 2138 3097 
Q 1578 3097 1268 2742 
Q 959 2388 959 1747 
Q 959 1106 1268 751 
Q 1578 397 2138 397 
Q 2388 397 2633 464 
Q 2878 531 3122 666 
L 3122 134 
Q 2881 22 2623 -34 
Q 2366 -91 2075 -91 
Q 1284 -91 818 406 
Q 353 903 353 1747 
Q 353 2603 823 3093 
Q 1294 3584 2113 3584 
Q 2378 3584 2631 3529 
Q 2884 3475 3122 3366 
z
" transform="scale(0.015625)"/>
      <path id="DejaVuSans-70" d="M 1159 525 
L 1159 -1331 
L 581 -1331 
L 581 3500 
L 1159 3500 
L 1159 2969 
Q 1341 3281 1617 3432 
Q 1894 3584 2278 3584 
Q 2916 3584 3314 3078 
Q 3713 2572 3713 1747 
Q 3713 922 3314 415 
Q 2916 -91 2278 -91 
Q 1894 -91 1617 61 
Q 1341 213 1159 525 
z
M 3116 1747 
Q 3116 2381 2855 2742 
Q 2594 3103 2138 3103 
Q 1681 3103 1420 2742 
Q 1159 2381 1159 1747 
Q 1159 1113 1420 752 
Q 1681 391 2138 391 
Q 2594 391 2855 752 
Q 3116 1113 3116 1747 
z
" transform="scale(0.015625)"/>
      <path id="DejaVuSans-6f" d="M 1959 3097 
Q 1497 3097 1228 2736 
Q 959 2375 959 1747 
Q 959 1119 1226 758 
Q 1494 397 1959 397 
Q 2419 397 2687 759 
Q 2956 1122 2956 1747 
Q 2956 2369 2687 2733 
Q 2419 3097 1959 3097 
z
M 1959 3584 
Q 2709 3584 3137 3096 
Q 3566 2609 3566 1747 
Q 3566 888 3137 398 
Q 2709 -91 1959 -91 
Q 1206 -91 779 398 
Q 353 888 353 1747 
Q 353 2609 779 3096 
Q 1206 3584 1959 3584 
z
" transform="scale(0.015625)"/>
      <path id="DejaVuSans-61" d="M 2194 1759 
Q 1497 1759 1228 1600 
Q 959 1441 959 1056 
Q 959 750 1161 570 
Q 1363 391 1709 391 
Q 2188 391 2477 730 
Q 2766 1069 2766 1631 
L 2766 1759 
L 2194 1759 
z
M 3341 1997 
L 3341 0 
L 2766 0 
L 2766 531 
Q 2569 213 2275 61 
Q 1981 -91 1556 -91 
Q 1019 -91 701 211 
Q 384 513 384 1019 
Q 384 1609 779 1909 
Q 1175 2209 1959 2209 
L 2766 2209 
L 2766 2266 
Q 2766 2663 2505 2880 
Q 2244 3097 1772 3097 
Q 1472 3097 1187 3025 
Q 903 2953 641 2809 
L 641 3341 
Q 956 3463 1253 3523 
Q 1550 3584 1831 3584 
Q 2591 3584 2966 3190 
Q 3341 2797 3341 1997 
z
" transform="scale(0.015625)"/>
      <path id="DejaVuSans-6c" d="M 603 4863 
L 1178 4863 
L 1178 0 
L 603 0 
L 603 4863 
z
" transform="scale(0.015625)"/>
      <path id="DejaVuSans-42" d="M 1259 2228 
L 1259 519 
L 2272 519 
Q 2781 519 3026 730 
Q 3272 941 3272 1375 
Q 3272 1813 3026 2020 
Q 2781 2228 2272 2228 
L 1259 2228 
z
M 1259 4147 
L 1259 2741 
L 2194 2741 
Q 2656 2741 2882 2914 
Q 3109 3088 3109 3444 
Q 3109 3797 2882 3972 
Q 2656 4147 2194 4147 
L 1259 4147 
z
M 628 4666 
L 2241 4666 
Q 2963 4666 3353 4366 
Q 3744 4066 3744 3513 
Q 3744 3084 3544 2831 
Q 3344 2578 2956 2516 
Q 3422 2416 3680 2098 
Q 3938 1781 3938 1306 
Q 3938 681 3513 340 
Q 3088 0 2303 0 
L 628 0 
L 628 4666 
z
" transform="scale(0.015625)"/>
      <path id="DejaVuSans-75" d="M 544 1381 
L 544 3500 
L 1119 3500 
L 1119 1403 
Q 1119 906 1312 657 
Q 1506 409 1894 409 
Q 2359 409 2629 706 
Q 2900 1003 2900 1516 
L 2900 3500 
L 3475 3500 
L 3475 0 
L 2900 0 
L 2900 538 
Q 2691 219 2414 64 
Q 2138 -91 1772 -91 
Q 1169 -91 856 284 
Q 544 659 544 1381 
z
M 1991 3584 
L 1991 3584 
z
" transform="scale(0.015625)"/>
      <path id="DejaVuSans-6d" d="M 3328 2828 
Q 3544 3216 3844 3400 
Q 4144 3584 4550 3584 
Q 5097 3584 5394 3201 
Q 5691 2819 5691 2113 
L 5691 0 
L 5113 0 
L 5113 2094 
Q 5113 2597 4934 2840 
Q 4756 3084 4391 3084 
Q 3944 3084 3684 2787 
Q 3425 2491 3425 1978 
L 3425 0 
L 2847 0 
L 2847 2094 
Q 2847 2600 2669 2842 
Q 2491 3084 2119 3084 
Q 1678 3084 1418 2786 
Q 1159 2488 1159 1978 
L 1159 0 
L 581 0 
L 581 3500 
L 1159 3500 
L 1159 2956 
Q 1356 3278 1631 3431 
Q 1906 3584 2284 3584 
Q 2666 3584 2933 3390 
Q 3200 3197 3328 2828 
z
" transform="scale(0.015625)"/>
      <path id="DejaVuSans-73" d="M 2834 3397 
L 2834 2853 
Q 2591 2978 2328 3040 
Q 2066 3103 1784 3103 
Q 1356 3103 1142 2972 
Q 928 2841 928 2578 
Q 928 2378 1081 2264 
Q 1234 2150 1697 2047 
L 1894 2003 
Q 2506 1872 2764 1633 
Q 3022 1394 3022 966 
Q 3022 478 2636 193 
Q 2250 -91 1575 -91 
Q 1294 -91 989 -36 
Q 684 19 347 128 
L 347 722 
Q 666 556 975 473 
Q 1284 391 1588 391 
Q 1994 391 2212 530 
Q 2431 669 2431 922 
Q 2431 1156 2273 1281 
Q 2116 1406 1581 1522 
L 1381 1569 
Q 847 1681 609 1914 
Q 372 2147 372 2553 
Q 372 3047 722 3315 
Q 1072 3584 1716 3584 
Q 2034 3584 2315 3537 
Q 2597 3491 2834 3397 
z
" transform="scale(0.015625)"/>
     </defs>
     <use xlink:href="#DejaVuSans-49"/>
     <use xlink:href="#DejaVuSans-6e" transform="translate(29.492188 0)"/>
     <use xlink:href="#DejaVuSans-74" transform="translate(92.871094 0)"/>
     <use xlink:href="#DejaVuSans-65" transform="translate(132.080078 0)"/>
     <use xlink:href="#DejaVuSans-67" transform="translate(193.603516 0)"/>
     <use xlink:href="#DejaVuSans-65" transform="translate(257.080078 0)"/>
     <use xlink:href="#DejaVuSans-72" transform="translate(318.603516 0)"/>
     <use xlink:href="#DejaVuSans-20" transform="translate(359.716797 0)"/>
     <use xlink:href="#DejaVuSans-72" transform="translate(391.503906 0)"/>
     <use xlink:href="#DejaVuSans-65" transform="translate(430.367188 0)"/>
     <use xlink:href="#DejaVuSans-63" transform="translate(491.890625 0)"/>
     <use xlink:href="#DejaVuSans-69" transform="translate(546.871094 0)"/>
     <use xlink:href="#DejaVuSans-70" transform="translate(574.654297 0)"/>
     <use xlink:href="#DejaVuSans-72" transform="translate(638.130859 0)"/>
     <use xlink:href="#DejaVuSans-6f" transform="translate(676.994141 0)"/>
     <use xlink:href="#DejaVuSans-63" transform="translate(738.175781 0)"/>
     <use xlink:href="#DejaVuSans-61" transform="translate(793.15625 0)"/>
     <use xlink:href="#DejaVuSans-6c" transform="translate(854.435547 0)"/>
     <use xlink:href="#DejaVuSans-20" transform="translate(882.21875 0)"/>
     <use xlink:href="#DejaVuSans-42" transform="translate(914.005859 0)"/>
     <use xlink:href="#DejaVuSans-65" transform="translate(982.609375 0)"/>
     <use xlink:href="#DejaVuSans-75" transform="translate(1044.132812 0)"/>
     <use xlink:href="#DejaVuSans-72" transform="translate(1107.511719 0)"/>
     <use xlink:href="#DejaVuSans-6c" transform="translate(1148.625 0)"/>
     <use xlink:href="#DejaVuSans-69" transform="translate(1176.408203 0)"/>
     <use xlink:href="#DejaVuSans-6e" transform="translate(1204.191406 0)"/>
     <use xlink:href="#DejaVuSans-67" transform="translate(1267.570312 0)"/>
     <use xlink:href="#DejaVuSans-20" transform="translate(1331.046875 0)"/>
     <use xlink:href="#DejaVuSans-61" transform="translate(1362.833984 0)"/>
     <use xlink:href="#DejaVuSans-74" transform="translate(1424.113281 0)"/>
     <use xlink:href="#DejaVuSans-6f" transform="translate(1463.322266 0)"/>
     <use xlink:href="#DejaVuSans-6d" transform="translate(1524.503906 0)"/>
     <use xlink:href="#DejaVuSans-73" transform="translate(1621.916016 0)"/>
    </g>
   </g>
   <g id="legend_1">
    <g id="line2d_20">
     <path d="M 543.120312 39.978438 
L 553.120312 39.978438 
L 563.120312 39.978438 
" style="fill: none; stroke: #1f77b4; stroke-linecap: square"/>
    </g>
    <g id="text_19">
     <!-- n=2 -->
     <g transform="translate(571.120312 43.478438) scale(0.1 -0.1)">
      <defs>
       <path id="DejaVuSans-3d" d="M 678 2906 
L 4684 2906 
L 4684 2381 
L 678 2381 
L 678 2906 
z
M 678 1631 
L 4684 1631 
L 4684 1100 
L 678 1100 
L 678 1631 
z
" transform="scale(0.015625)"/>
      </defs>
      <use xlink:href="#DejaVuSans-6e"/>
      <use xlink:href="#DejaVuSans-3d" transform="translate(63.378906 0)"/>
      <use xlink:href="#DejaVuSans-32" transform="translate(147.167969 0)"/>
     </g>
    </g>
    <g id="line2d_21">
     <path d="M 543.120312 54.656563 
L 553.120312 54.656563 
L 563.120312 54.656563 
" style="fill: none; stroke: #ff7f0e; stroke-linecap: square"/>
    </g>
    <g id="text_20">
     <!-- n=3 -->
     <g transform="translate(571.120312 58.156563) scale(0.1 -0.1)">
      <use xlink:href="#DejaVuSans-6e"/>
      <use xlink:href="#DejaVuSans-3d" transform="translate(63.378906 0)"/>
      <use xlink:href="#DejaVuSans-33" transform="translate(147.167969 0)"/>
     </g>
    </g>
    <g id="line2d_22">
     <path d="M 543.120312 69.334688 
L 553.120312 69.334688 
L 563.120312 69.334688 
" style="fill: none; stroke: #2ca02c; stroke-linecap: square"/>
    </g>
    <g id="text_21">
     <!-- n=5 -->
     <g transform="translate(571.120312 72.834688) scale(0.1 -0.1)">
      <use xlink:href="#DejaVuSans-6e"/>
      <use xlink:href="#DejaVuSans-3d" transform="translate(63.378906 0)"/>
      <use xlink:href="#DejaVuSans-35" transform="translate(147.167969 0)"/>
     </g>
    </g>
   </g>
  </g>
 </g>
 <defs>
  <clipPath id="p2edf2f33e7">
   <rect x="53.192" y="26.88" width="548.008" height="269.56"/>
  </clipPath>
 </defs>
</svg>
